<?xml version="1.0" encoding="UTF-8" standalone="no"?><svg xmlns="http://www.w3.org/2000/svg" xmlns:xlink="http://www.w3.org/1999/xlink" clip-rule="evenodd" stroke-miterlimit="10" viewBox="0 0 1680 1050"><desc>SVG generated by Keynote</desc><defs><linearGradient id="gradSh1.0" x1="0.0" y1="0.0" x2="100.0" y2="0.0" gradientUnits="userSpaceOnUse" gradientTransform="matrix(0.00, -9.40, -15.23, 0.00, 839.5, 995.0)"><stop offset="0.00000" stop-color="#FFFFFF"></stop><stop offset="0.01246" stop-color="#FEFEFE"></stop><stop offset="1.00000" stop-color="#D6D6D6"></stop></linearGradient></defs><g transform="matrix(1.00, 0.00, -0.00, -1.00, 0.0, 1050.0)"><path d="M 0.0 1050.0 L 1680.0 1050.0 L 1680.0 0.0 L 0.0 0.0 Z M 0.0 1050.0 " fill="#D3CCC3"></path><image xlink:href="AA6AEDD8890ABBBCEE2D161D333D80F6.png" width="1549.00" height="966.00" transform="matrix(1.00, 0.00, -0.00, -1.00, 65.0, 1005.0)" opacity="0.60"></image><g><clipPath id="clip0x6000010b6860"><path d="M 79.0 71.0 L 79.0 979.0 C 79.0 987.3 85.7 994.0 94.0 994.0 L 1585.0 994.0 C 1593.3 994.0 1600.0 987.3 1600.0 979.0 L 1600.0 71.0 C 1600.0 62.7 1593.3 56.0 1585.0 56.0 L 94.0 56.0 C 85.7 56.0 79.0 62.7 79.0 71.0 Z M 79.0 71.0 "></path></clipPath><g clip-path="url(#clip0x6000010b6860)"><path d="M 79.0 71.0 L 79.0 979.0 C 79.0 987.3 85.7 994.0 94.0 994.0 L 1585.0 994.0 C 1593.3 994.0 1600.0 987.3 1600.0 979.0 L 1600.0 71.0 C 1600.0 62.7 1593.3 56.0 1585.0 56.0 L 94.0 56.0 C 85.7 56.0 79.0 62.7 79.0 71.0 Z M 79.0 71.0 " fill="url(#gradSh1.0)"></path></g></g><path d="M 1600.0 815.0 L 1631.0 815.0 L 1600.0 748.0 Z M 1600.0 815.0 " fill="#054009"></path><image xlink:href="BAF4D404B80D4D5427E0C174CBFB1606.png" width="88.00" height="127.00" transform="matrix(1.00, 0.00, -0.00, -1.00, 1548.1, 932.2)" opacity="0.32"></image><path d="M 1551.0 815.3 L 1551.0 927.7 C 1551.0 929.5 1552.5 931.0 1554.3 931.0 L 1627.7 931.0 C 1629.5 931.0 1631.0 929.5 1631.0 927.7 L 1631.0 815.3 C 1631.0 813.5 1629.5 812.0 1627.7 812.0 L 1554.3 812.0 C 1552.5 812.0 1551.0 813.5 1551.0 815.3 Z M 1551.0 815.3 " fill="#0B5C18"></path><text xml:space="preserve" font-family="BankGothic-Medium,Bank Gothic" font-size="24.0" fill="#FFFFFF" transform="matrix(1.00, 0.00, -0.00, -1.00, 1582.5, 901.4)">P</text><text xml:space="preserve" font-family="LucidaGrande-Bold,Lucida Grande" font-weight="bold" font-size="24.0" fill="#FFFFFF" transform="matrix(1.00, 0.00, -0.00, -1.00, 1600.4, 901.4)"> </text><text xml:space="preserve" font-family="BankGothic-Medium,Bank Gothic" font-size="24.0" fill="#FFFFFF" transform="matrix(1.00, 0.00, -0.00, -1.00, 1582.5, 876.4)">P</text><text xml:space="preserve" font-family="BankGothic-Medium,Bank Gothic" font-size="24.0" fill="#FFFFFF" transform="matrix(1.00, 0.00, -0.00, -1.00, 1600.4, 876.4)"> </text><text xml:space="preserve" font-family="BankGothic-Medium,Bank Gothic" font-size="24.0" fill="#FFFFFF" transform="matrix(1.00, 0.00, -0.00, -1.00, 1582.5, 851.4)">D</text><text xml:space="preserve" font-family="BankGothic-Medium,Bank Gothic" font-size="24.0" fill="#FFFFFF" transform="matrix(1.00, 0.00, -0.00, -1.00, 1602.9, 851.4)"> </text><text xml:space="preserve" font-family="BankGothic-Medium,Bank Gothic" font-size="24.0" fill="#FFFFFF" transform="matrix(1.00, 0.00, -0.00, -1.00, 1582.5, 826.4)">C</text><text xml:space="preserve" font-family="BankGothic-Medium,Bank Gothic" font-size="114.0" fill="#05510A" transform="matrix(1.00, 0.00, -0.00, -1.00, 242.0, 803.0)">M</text><text xml:space="preserve" font-family="BankGothic-Medium,Bank Gothic" font-size="114.0" fill="#05510A" transform="matrix(1.00, 0.00, -0.00, -1.00, 347.6, 803.0)">a</text><text xml:space="preserve" font-family="BankGothic-Medium,Bank Gothic" font-size="114.0" fill="#05510A" transform="matrix(1.00, 0.00, -0.00, -1.00, 421.2, 803.0)">n</text><text xml:space="preserve" font-family="BankGothic-Medium,Bank Gothic" font-size="114.0" fill="#05510A" transform="matrix(1.00, 0.00, -0.00, -1.00, 502.4, 803.0)">i</text><text xml:space="preserve" font-family="BankGothic-Medium,Bank Gothic" font-size="114.0" fill="#05510A" transform="matrix(1.00, 0.00, -0.00, -1.00, 535.6, 803.0)">p</text><text xml:space="preserve" font-family="BankGothic-Medium,Bank Gothic" font-size="114.0" fill="#05510A" transform="matrix(1.00, 0.00, -0.00, -1.00, 607.2, 803.0)">u</text><text xml:space="preserve" font-family="BankGothic-Medium,Bank Gothic" font-size="114.0" fill="#05510A" transform="matrix(1.00, 0.00, -0.00, -1.00, 685.7, 803.0)">l</text><text xml:space="preserve" font-family="BankGothic-Medium,Bank Gothic" font-size="114.0" fill="#05510A" transform="matrix(1.00, 0.00, -0.00, -1.00, 748.6, 803.0)">a</text><text xml:space="preserve" font-family="BankGothic-Medium,Bank Gothic" font-size="114.0" fill="#05510A" transform="matrix(1.00, 0.00, -0.00, -1.00, 822.3, 803.0)">t</text><text xml:space="preserve" font-family="BankGothic-Medium,Bank Gothic" font-size="114.0" fill="#05510A" transform="matrix(1.00, 0.00, -0.00, -1.00, 889.5, 803.0)">i</text><text xml:space="preserve" font-family="BankGothic-Medium,Bank Gothic" font-size="114.0" fill="#05510A" transform="matrix(1.00, 0.00, -0.00, -1.00, 922.7, 803.0)">n</text><text xml:space="preserve" font-family="BankGothic-Medium,Bank Gothic" font-size="114.0" fill="#05510A" transform="matrix(1.00, 0.00, -0.00, -1.00, 1003.9, 803.0)">g</text><text xml:space="preserve" font-family="BankGothic-Medium,Bank Gothic" font-size="114.0" fill="#05510A" transform="matrix(1.00, 0.00, -0.00, -1.00, 1082.8, 803.0)"> </text><text xml:space="preserve" font-family="BankGothic-Medium,Bank Gothic" font-size="114.0" fill="#05510A" transform="matrix(1.00, 0.00, -0.00, -1.00, 1126.9, 803.0)">D</text><text xml:space="preserve" font-family="BankGothic-Medium,Bank Gothic" font-size="114.0" fill="#05510A" transform="matrix(1.00, 0.00, -0.00, -1.00, 1223.4, 803.0)">a</text><text xml:space="preserve" font-family="BankGothic-Medium,Bank Gothic" font-size="114.0" fill="#05510A" transform="matrix(1.00, 0.00, -0.00, -1.00, 1297.1, 803.0)">t</text><text xml:space="preserve" font-family="BankGothic-Medium,Bank Gothic" font-size="114.0" fill="#05510A" transform="matrix(1.00, 0.00, -0.00, -1.00, 1364.3, 803.0)">a</text><text xml:space="preserve" font-family="BankGothic-Medium,Bank Gothic" font-size="114.0" fill="#05510A" transform="matrix(1.00, 0.00, -0.00, -1.00, 1438.0, 803.0)"> </text><text xml:space="preserve" font-family="BankGothic-Medium,Bank Gothic" font-size="114.0" fill="#05510A" transform="matrix(1.00, 0.00, -0.00, -1.00, 265.8, 685.0)">w</text><text xml:space="preserve" font-family="BankGothic-Medium,Bank Gothic" font-size="114.0" fill="#05510A" transform="matrix(1.00, 0.00, -0.00, -1.00, 355.7, 685.0)">i</text><text xml:space="preserve" font-family="BankGothic-Medium,Bank Gothic" font-size="114.0" fill="#05510A" transform="matrix(1.00, 0.00, -0.00, -1.00, 388.9, 685.0)">t</text><text xml:space="preserve" font-family="BankGothic-Medium,Bank Gothic" font-size="114.0" fill="#05510A" transform="matrix(1.00, 0.00, -0.00, -1.00, 456.2, 685.0)">h</text><text xml:space="preserve" font-family="BankGothic-Medium,Bank Gothic" font-size="114.0" fill="#05510A" transform="matrix(1.00, 0.00, -0.00, -1.00, 538.0, 685.0)"> </text><text xml:space="preserve" font-family="BankGothic-Medium,Bank Gothic" font-size="114.0" fill="#05510A" transform="matrix(1.00, 0.00, -0.00, -1.00, 582.1, 685.0)">S</text><text xml:space="preserve" font-family="BankGothic-Medium,Bank Gothic" font-size="114.0" fill="#05510A" transform="matrix(1.00, 0.00, -0.00, -1.00, 674.4, 685.0)">t</text><text xml:space="preserve" font-family="BankGothic-Medium,Bank Gothic" font-size="114.0" fill="#05510A" transform="matrix(1.00, 0.00, -0.00, -1.00, 741.6, 685.0)">y</text><text xml:space="preserve" font-family="BankGothic-Medium,Bank Gothic" font-size="114.0" fill="#05510A" transform="matrix(1.00, 0.00, -0.00, -1.00, 809.2, 685.0)">l</text><text xml:space="preserve" font-family="BankGothic-Medium,Bank Gothic" font-size="114.0" fill="#05510A" transform="matrix(1.00, 0.00, -0.00, -1.00, 872.1, 685.0)">e</text><text xml:space="preserve" font-family="BankGothic-Medium,Bank Gothic" font-size="114.0" fill="#05510A" transform="matrix(1.00, 0.00, -0.00, -1.00, 941.5, 685.0)"> </text><text xml:space="preserve" font-family="BankGothic-Medium,Bank Gothic" font-size="114.0" fill="#05510A" transform="matrix(1.00, 0.00, -0.00, -1.00, 985.6, 685.0)">i</text><text xml:space="preserve" font-family="BankGothic-Medium,Bank Gothic" font-size="114.0" fill="#05510A" transform="matrix(1.00, 0.00, -0.00, -1.00, 1018.8, 685.0)">n</text><text xml:space="preserve" font-family="BankGothic-Medium,Bank Gothic" font-size="114.0" fill="#05510A" transform="matrix(1.00, 0.00, -0.00, -1.00, 1099.9, 685.0)"> </text><text xml:space="preserve" font-family="BankGothic-Medium,Bank Gothic" font-size="114.0" fill="#05510A" transform="matrix(1.00, 0.00, -0.00, -1.00, 1144.0, 685.0)">S</text><text xml:space="preserve" font-family="BankGothic-Medium,Bank Gothic" font-size="114.0" fill="#05510A" transform="matrix(1.00, 0.00, -0.00, -1.00, 1236.3, 685.0)">Q</text><text xml:space="preserve" font-family="BankGothic-Medium,Bank Gothic" font-size="114.0" fill="#05510A" transform="matrix(1.00, 0.00, -0.00, -1.00, 1336.4, 685.0)">L</text><text xml:space="preserve" font-family="BankGothic-Light,Bank Gothic" font-size="48.0" fill="#504460" transform="matrix(1.00, 0.00, -0.00, -1.00, 168.4, 604.9)">A</text><text xml:space="preserve" font-family="BankGothic-Light,Bank Gothic" font-size="48.0" fill="#504460" transform="matrix(1.00, 0.00, -0.00, -1.00, 203.3, 604.9)">n</text><text xml:space="preserve" font-family="BankGothic-Light,Bank Gothic" font-size="48.0" fill="#504460" transform="matrix(1.00, 0.00, -0.00, -1.00, 236.2, 604.9)"> </text><text xml:space="preserve" font-family="BankGothic-Light,Bank Gothic" font-size="48.0" fill="#504460" transform="matrix(1.00, 0.00, -0.00, -1.00, 254.2, 604.9)">i</text><text xml:space="preserve" font-family="BankGothic-Light,Bank Gothic" font-size="48.0" fill="#504460" transform="matrix(1.00, 0.00, -0.00, -1.00, 267.2, 604.9)">n</text><text xml:space="preserve" font-family="BankGothic-Light,Bank Gothic" font-size="48.0" fill="#504460" transform="matrix(1.00, 0.00, -0.00, -1.00, 300.1, 604.9)">t</text><text xml:space="preserve" font-family="BankGothic-Light,Bank Gothic" font-size="48.0" fill="#504460" transform="matrix(1.00, 0.00, -0.00, -1.00, 325.3, 604.9)">r</text><text xml:space="preserve" font-family="BankGothic-Light,Bank Gothic" font-size="48.0" fill="#504460" transform="matrix(1.00, 0.00, -0.00, -1.00, 354.8, 604.9)">o</text><text xml:space="preserve" font-family="BankGothic-Light,Bank Gothic" font-size="48.0" fill="#504460" transform="matrix(1.00, 0.00, -0.00, -1.00, 387.9, 604.9)">d</text><text xml:space="preserve" font-family="BankGothic-Light,Bank Gothic" font-size="48.0" fill="#504460" transform="matrix(1.00, 0.00, -0.00, -1.00, 422.9, 604.9)">u</text><text xml:space="preserve" font-family="BankGothic-Light,Bank Gothic" font-size="48.0" fill="#504460" transform="matrix(1.00, 0.00, -0.00, -1.00, 454.9, 604.9)">c</text><text xml:space="preserve" font-family="BankGothic-Light,Bank Gothic" font-size="48.0" fill="#504460" transform="matrix(1.00, 0.00, -0.00, -1.00, 484.5, 604.9)">t</text><text xml:space="preserve" font-family="BankGothic-Light,Bank Gothic" font-size="48.0" fill="#504460" transform="matrix(1.00, 0.00, -0.00, -1.00, 509.7, 604.9)">i</text><text xml:space="preserve" font-family="BankGothic-Light,Bank Gothic" font-size="48.0" fill="#504460" transform="matrix(1.00, 0.00, -0.00, -1.00, 522.7, 604.9)">o</text><text xml:space="preserve" font-family="BankGothic-Light,Bank Gothic" font-size="48.0" fill="#504460" transform="matrix(1.00, 0.00, -0.00, -1.00, 555.8, 604.9)">n</text><text xml:space="preserve" font-family="BankGothic-Light,Bank Gothic" font-size="48.0" fill="#504460" transform="matrix(1.00, 0.00, -0.00, -1.00, 588.8, 604.9)"> </text><text xml:space="preserve" font-family="BankGothic-Light,Bank Gothic" font-size="48.0" fill="#504460" transform="matrix(1.00, 0.00, -0.00, -1.00, 606.7, 604.9)">t</text><text xml:space="preserve" font-family="BankGothic-Light,Bank Gothic" font-size="48.0" fill="#504460" transform="matrix(1.00, 0.00, -0.00, -1.00, 631.9, 604.9)">o</text><text xml:space="preserve" font-family="BankGothic-Light,Bank Gothic" font-size="48.0" fill="#504460" transform="matrix(1.00, 0.00, -0.00, -1.00, 665.0, 604.9)"> </text><text xml:space="preserve" font-family="BankGothic-Light,Bank Gothic" font-size="48.0" fill="#504460" transform="matrix(1.00, 0.00, -0.00, -1.00, 683.0, 604.9)">S</text><text xml:space="preserve" font-family="BankGothic-Light,Bank Gothic" font-size="48.0" fill="#504460" transform="matrix(1.00, 0.00, -0.00, -1.00, 720.5, 604.9)">Q</text><text xml:space="preserve" font-family="BankGothic-Light,Bank Gothic" font-size="48.0" fill="#504460" transform="matrix(1.00, 0.00, -0.00, -1.00, 761.4, 604.9)">L</text><text xml:space="preserve" font-family="BankGothic-Light,Bank Gothic" font-size="48.0" fill="#504460" transform="matrix(1.00, 0.00, -0.00, -1.00, 792.8, 604.9)">,</text><text xml:space="preserve" font-family="BankGothic-Light,Bank Gothic" font-size="48.0" fill="#504460" transform="matrix(1.00, 0.00, -0.00, -1.00, 810.7, 604.9)"> </text><text xml:space="preserve" font-family="BankGothic-Light,Bank Gothic" font-size="48.0" fill="#504460" transform="matrix(1.00, 0.00, -0.00, -1.00, 828.7, 604.9)">t</text><text xml:space="preserve" font-family="BankGothic-Light,Bank Gothic" font-size="48.0" fill="#504460" transform="matrix(1.00, 0.00, -0.00, -1.00, 853.9, 604.9)">h</text><text xml:space="preserve" font-family="BankGothic-Light,Bank Gothic" font-size="48.0" fill="#504460" transform="matrix(1.00, 0.00, -0.00, -1.00, 887.2, 604.9)">e</text><text xml:space="preserve" font-family="BankGothic-Light,Bank Gothic" font-size="48.0" fill="#504460" transform="matrix(1.00, 0.00, -0.00, -1.00, 915.1, 604.9)"> </text><text xml:space="preserve" font-family="BankGothic-Light,Bank Gothic" font-size="48.0" fill="#504460" transform="matrix(1.00, 0.00, -0.00, -1.00, 933.0, 604.9)">i</text><text xml:space="preserve" font-family="BankGothic-Light,Bank Gothic" font-size="48.0" fill="#504460" transform="matrix(1.00, 0.00, -0.00, -1.00, 946.1, 604.9)">n</text><text xml:space="preserve" font-family="BankGothic-Light,Bank Gothic" font-size="48.0" fill="#504460" transform="matrix(1.00, 0.00, -0.00, -1.00, 979.0, 604.9)">t</text><text xml:space="preserve" font-family="BankGothic-Light,Bank Gothic" font-size="48.0" fill="#504460" transform="matrix(1.00, 0.00, -0.00, -1.00, 1004.2, 604.9)">e</text><text xml:space="preserve" font-family="BankGothic-Light,Bank Gothic" font-size="48.0" fill="#504460" transform="matrix(1.00, 0.00, -0.00, -1.00, 1032.1, 604.9)">r</text><text xml:space="preserve" font-family="BankGothic-Light,Bank Gothic" font-size="48.0" fill="#504460" transform="matrix(1.00, 0.00, -0.00, -1.00, 1061.5, 604.9)">f</text><text xml:space="preserve" font-family="BankGothic-Light,Bank Gothic" font-size="48.0" fill="#504460" transform="matrix(1.00, 0.00, -0.00, -1.00, 1087.6, 604.9)">a</text><text xml:space="preserve" font-family="BankGothic-Light,Bank Gothic" font-size="48.0" fill="#504460" transform="matrix(1.00, 0.00, -0.00, -1.00, 1117.7, 604.9)">c</text><text xml:space="preserve" font-family="BankGothic-Light,Bank Gothic" font-size="48.0" fill="#504460" transform="matrix(1.00, 0.00, -0.00, -1.00, 1147.2, 604.9)">e</text><text xml:space="preserve" font-family="BankGothic-Light,Bank Gothic" font-size="48.0" fill="#504460" transform="matrix(1.00, 0.00, -0.00, -1.00, 1175.1, 604.9)"> </text><text xml:space="preserve" font-family="BankGothic-Light,Bank Gothic" font-size="48.0" fill="#504460" transform="matrix(1.00, 0.00, -0.00, -1.00, 1193.1, 604.9)">l</text><text xml:space="preserve" font-family="BankGothic-Light,Bank Gothic" font-size="48.0" fill="#504460" transform="matrix(1.00, 0.00, -0.00, -1.00, 1218.8, 604.9)">a</text><text xml:space="preserve" font-family="BankGothic-Light,Bank Gothic" font-size="48.0" fill="#504460" transform="matrix(1.00, 0.00, -0.00, -1.00, 1248.9, 604.9)">n</text><text xml:space="preserve" font-family="BankGothic-Light,Bank Gothic" font-size="48.0" fill="#504460" transform="matrix(1.00, 0.00, -0.00, -1.00, 1281.8, 604.9)">g</text><text xml:space="preserve" font-family="BankGothic-Light,Bank Gothic" font-size="48.0" fill="#504460" transform="matrix(1.00, 0.00, -0.00, -1.00, 1313.6, 604.9)">u</text><text xml:space="preserve" font-family="BankGothic-Light,Bank Gothic" font-size="48.0" fill="#504460" transform="matrix(1.00, 0.00, -0.00, -1.00, 1345.6, 604.9)">a</text><text xml:space="preserve" font-family="BankGothic-Light,Bank Gothic" font-size="48.0" fill="#504460" transform="matrix(1.00, 0.00, -0.00, -1.00, 1375.7, 604.9)">g</text><text xml:space="preserve" font-family="BankGothic-Light,Bank Gothic" font-size="48.0" fill="#504460" transform="matrix(1.00, 0.00, -0.00, -1.00, 1407.5, 604.9)">e</text><text xml:space="preserve" font-family="BankGothic-Light,Bank Gothic" font-size="48.0" fill="#504460" transform="matrix(1.00, 0.00, -0.00, -1.00, 1435.3, 604.9)"> </text><text xml:space="preserve" font-family="BankGothic-Light,Bank Gothic" font-size="48.0" fill="#504460" transform="matrix(1.00, 0.00, -0.00, -1.00, 1453.3, 604.9)">t</text><text xml:space="preserve" font-family="BankGothic-Light,Bank Gothic" font-size="48.0" fill="#504460" transform="matrix(1.00, 0.00, -0.00, -1.00, 1478.5, 604.9)">o</text><text xml:space="preserve" font-family="BankGothic-Light,Bank Gothic" font-size="48.0" fill="#504460" transform="matrix(1.00, 0.00, -0.00, -1.00, 1511.6, 604.9)"> </text><text xml:space="preserve" font-family="BankGothic-Light,Bank Gothic" font-size="48.0" fill="#504460" transform="matrix(1.00, 0.00, -0.00, -1.00, 281.2, 555.9)">m</text><text xml:space="preserve" font-family="BankGothic-Light,Bank Gothic" font-size="48.0" fill="#504460" transform="matrix(1.00, 0.00, -0.00, -1.00, 316.8, 555.9)">o</text><text xml:space="preserve" font-family="BankGothic-Light,Bank Gothic" font-size="48.0" fill="#504460" transform="matrix(1.00, 0.00, -0.00, -1.00, 350.0, 555.9)">s</text><text xml:space="preserve" font-family="BankGothic-Light,Bank Gothic" font-size="48.0" fill="#504460" transform="matrix(1.00, 0.00, -0.00, -1.00, 380.5, 555.9)">t</text><text xml:space="preserve" font-family="BankGothic-Light,Bank Gothic" font-size="48.0" fill="#504460" transform="matrix(1.00, 0.00, -0.00, -1.00, 405.7, 555.9)"> </text><text xml:space="preserve" font-family="BankGothic-Light,Bank Gothic" font-size="48.0" fill="#504460" transform="matrix(1.00, 0.00, -0.00, -1.00, 423.7, 555.9)">o</text><text xml:space="preserve" font-family="BankGothic-Light,Bank Gothic" font-size="48.0" fill="#504460" transform="matrix(1.00, 0.00, -0.00, -1.00, 456.8, 555.9)">f</text><text xml:space="preserve" font-family="BankGothic-Light,Bank Gothic" font-size="48.0" fill="#504460" transform="matrix(1.00, 0.00, -0.00, -1.00, 482.9, 555.9)"> </text><text xml:space="preserve" font-family="BankGothic-Light,Bank Gothic" font-size="48.0" fill="#504460" transform="matrix(1.00, 0.00, -0.00, -1.00, 500.8, 555.9)">t</text><text xml:space="preserve" font-family="BankGothic-Light,Bank Gothic" font-size="48.0" fill="#504460" transform="matrix(1.00, 0.00, -0.00, -1.00, 526.0, 555.9)">h</text><text xml:space="preserve" font-family="BankGothic-Light,Bank Gothic" font-size="48.0" fill="#504460" transform="matrix(1.00, 0.00, -0.00, -1.00, 559.3, 555.9)">e</text><text xml:space="preserve" font-family="BankGothic-Light,Bank Gothic" font-size="48.0" fill="#504460" transform="matrix(1.00, 0.00, -0.00, -1.00, 587.2, 555.9)"> </text><text xml:space="preserve" font-family="BankGothic-Light,Bank Gothic" font-size="48.0" fill="#504460" transform="matrix(1.00, 0.00, -0.00, -1.00, 605.2, 555.9)">w</text><text xml:space="preserve" font-family="BankGothic-Light,Bank Gothic" font-size="48.0" fill="#504460" transform="matrix(1.00, 0.00, -0.00, -1.00, 640.5, 555.9)">o</text><text xml:space="preserve" font-family="BankGothic-Light,Bank Gothic" font-size="48.0" fill="#504460" transform="matrix(1.00, 0.00, -0.00, -1.00, 673.6, 555.9)">r</text><text xml:space="preserve" font-family="BankGothic-Light,Bank Gothic" font-size="48.0" fill="#504460" transform="matrix(1.00, 0.00, -0.00, -1.00, 703.1, 555.9)">l</text><text xml:space="preserve" font-family="BankGothic-Light,Bank Gothic" font-size="48.0" fill="#504460" transform="matrix(1.00, 0.00, -0.00, -1.00, 728.7, 555.9)">d</text><text xml:space="preserve" font-family="BankGothic-Light,Bank Gothic" font-size="48.0" fill="#504460" transform="matrix(1.00, 0.00, -0.00, -1.00, 763.7, 555.9)">’</text><text xml:space="preserve" font-family="BankGothic-Light,Bank Gothic" font-size="48.0" fill="#504460" transform="matrix(1.00, 0.00, -0.00, -1.00, 781.7, 555.9)">s</text><text xml:space="preserve" font-family="BankGothic-Light,Bank Gothic" font-size="48.0" fill="#504460" transform="matrix(1.00, 0.00, -0.00, -1.00, 812.3, 555.9)"> </text><text xml:space="preserve" font-family="BankGothic-Light,Bank Gothic" font-size="48.0" fill="#504460" transform="matrix(1.00, 0.00, -0.00, -1.00, 830.2, 555.9)">s</text><text xml:space="preserve" font-family="BankGothic-Light,Bank Gothic" font-size="48.0" fill="#504460" transform="matrix(1.00, 0.00, -0.00, -1.00, 860.8, 555.9)">t</text><text xml:space="preserve" font-family="BankGothic-Light,Bank Gothic" font-size="48.0" fill="#504460" transform="matrix(1.00, 0.00, -0.00, -1.00, 886.0, 555.9)">r</text><text xml:space="preserve" font-family="BankGothic-Light,Bank Gothic" font-size="48.0" fill="#504460" transform="matrix(1.00, 0.00, -0.00, -1.00, 915.4, 555.9)">u</text><text xml:space="preserve" font-family="BankGothic-Light,Bank Gothic" font-size="48.0" fill="#504460" transform="matrix(1.00, 0.00, -0.00, -1.00, 947.4, 555.9)">c</text><text xml:space="preserve" font-family="BankGothic-Light,Bank Gothic" font-size="48.0" fill="#504460" transform="matrix(1.00, 0.00, -0.00, -1.00, 977.0, 555.9)">t</text><text xml:space="preserve" font-family="BankGothic-Light,Bank Gothic" font-size="48.0" fill="#504460" transform="matrix(1.00, 0.00, -0.00, -1.00, 1002.2, 555.9)">u</text><text xml:space="preserve" font-family="BankGothic-Light,Bank Gothic" font-size="48.0" fill="#504460" transform="matrix(1.00, 0.00, -0.00, -1.00, 1034.2, 555.9)">r</text><text xml:space="preserve" font-family="BankGothic-Light,Bank Gothic" font-size="48.0" fill="#504460" transform="matrix(1.00, 0.00, -0.00, -1.00, 1063.6, 555.9)">e</text><text xml:space="preserve" font-family="BankGothic-Light,Bank Gothic" font-size="48.0" fill="#504460" transform="matrix(1.00, 0.00, -0.00, -1.00, 1091.5, 555.9)">d</text><text xml:space="preserve" font-family="BankGothic-Light,Bank Gothic" font-size="48.0" fill="#504460" transform="matrix(1.00, 0.00, -0.00, -1.00, 1126.5, 555.9)"> </text><text xml:space="preserve" font-family="BankGothic-Light,Bank Gothic" font-size="48.0" fill="#504460" transform="matrix(1.00, 0.00, -0.00, -1.00, 1144.5, 555.9)">d</text><text xml:space="preserve" font-family="BankGothic-Light,Bank Gothic" font-size="48.0" fill="#504460" transform="matrix(1.00, 0.00, -0.00, -1.00, 1179.5, 555.9)">a</text><text xml:space="preserve" font-family="BankGothic-Light,Bank Gothic" font-size="48.0" fill="#504460" transform="matrix(1.00, 0.00, -0.00, -1.00, 1209.6, 555.9)">t</text><text xml:space="preserve" font-family="BankGothic-Light,Bank Gothic" font-size="48.0" fill="#504460" transform="matrix(1.00, 0.00, -0.00, -1.00, 1234.8, 555.9)">a</text><text xml:space="preserve" font-family="BankGothic-Light,Bank Gothic" font-size="48.0" fill="#504460" transform="matrix(1.00, 0.00, -0.00, -1.00, 1264.8, 555.9)">,</text><text xml:space="preserve" font-family="BankGothic-Light,Bank Gothic" font-size="48.0" fill="#504460" transform="matrix(1.00, 0.00, -0.00, -1.00, 1282.8, 555.9)"> </text><text xml:space="preserve" font-family="BankGothic-Light,Bank Gothic" font-size="48.0" fill="#504460" transform="matrix(1.00, 0.00, -0.00, -1.00, 1300.8, 555.9)">a</text><text xml:space="preserve" font-family="BankGothic-Light,Bank Gothic" font-size="48.0" fill="#504460" transform="matrix(1.00, 0.00, -0.00, -1.00, 1330.8, 555.9)">n</text><text xml:space="preserve" font-family="BankGothic-Light,Bank Gothic" font-size="48.0" fill="#504460" transform="matrix(1.00, 0.00, -0.00, -1.00, 1363.8, 555.9)">d</text><text xml:space="preserve" font-family="BankGothic-Light,Bank Gothic" font-size="48.0" fill="#504460" transform="matrix(1.00, 0.00, -0.00, -1.00, 1398.8, 555.9)"> </text><text xml:space="preserve" font-family="BankGothic-Light,Bank Gothic" font-size="48.0" fill="#504460" transform="matrix(1.00, 0.00, -0.00, -1.00, 217.8, 506.9)">p</text><text xml:space="preserve" font-family="BankGothic-Light,Bank Gothic" font-size="48.0" fill="#504460" transform="matrix(1.00, 0.00, -0.00, -1.00, 246.9, 506.9)">r</text><text xml:space="preserve" font-family="BankGothic-Light,Bank Gothic" font-size="48.0" fill="#504460" transform="matrix(1.00, 0.00, -0.00, -1.00, 276.3, 506.9)">a</text><text xml:space="preserve" font-family="BankGothic-Light,Bank Gothic" font-size="48.0" fill="#504460" transform="matrix(1.00, 0.00, -0.00, -1.00, 306.4, 506.9)">c</text><text xml:space="preserve" font-family="BankGothic-Light,Bank Gothic" font-size="48.0" fill="#504460" transform="matrix(1.00, 0.00, -0.00, -1.00, 336.0, 506.9)">t</text><text xml:space="preserve" font-family="BankGothic-Light,Bank Gothic" font-size="48.0" fill="#504460" transform="matrix(1.00, 0.00, -0.00, -1.00, 361.2, 506.9)">i</text><text xml:space="preserve" font-family="BankGothic-Light,Bank Gothic" font-size="48.0" fill="#504460" transform="matrix(1.00, 0.00, -0.00, -1.00, 374.2, 506.9)">c</text><text xml:space="preserve" font-family="BankGothic-Light,Bank Gothic" font-size="48.0" fill="#504460" transform="matrix(1.00, 0.00, -0.00, -1.00, 403.8, 506.9)">e</text><text xml:space="preserve" font-family="BankGothic-Light,Bank Gothic" font-size="48.0" fill="#504460" transform="matrix(1.00, 0.00, -0.00, -1.00, 431.7, 506.9)">s</text><text xml:space="preserve" font-family="BankGothic-Light,Bank Gothic" font-size="48.0" fill="#504460" transform="matrix(1.00, 0.00, -0.00, -1.00, 462.2, 506.9)"> </text><text xml:space="preserve" font-family="BankGothic-Light,Bank Gothic" font-size="48.0" fill="#504460" transform="matrix(1.00, 0.00, -0.00, -1.00, 480.2, 506.9)">f</text><text xml:space="preserve" font-family="BankGothic-Light,Bank Gothic" font-size="48.0" fill="#504460" transform="matrix(1.00, 0.00, -0.00, -1.00, 506.3, 506.9)">o</text><text xml:space="preserve" font-family="BankGothic-Light,Bank Gothic" font-size="48.0" fill="#504460" transform="matrix(1.00, 0.00, -0.00, -1.00, 539.4, 506.9)">r</text><text xml:space="preserve" font-family="BankGothic-Light,Bank Gothic" font-size="48.0" fill="#504460" transform="matrix(1.00, 0.00, -0.00, -1.00, 568.8, 506.9)"> </text><text xml:space="preserve" font-family="BankGothic-Light,Bank Gothic" font-size="48.0" fill="#504460" transform="matrix(1.00, 0.00, -0.00, -1.00, 586.8, 506.9)">r</text><text xml:space="preserve" font-family="BankGothic-Light,Bank Gothic" font-size="48.0" fill="#504460" transform="matrix(1.00, 0.00, -0.00, -1.00, 616.2, 506.9)">e</text><text xml:space="preserve" font-family="BankGothic-Light,Bank Gothic" font-size="48.0" fill="#504460" transform="matrix(1.00, 0.00, -0.00, -1.00, 644.1, 506.9)">a</text><text xml:space="preserve" font-family="BankGothic-Light,Bank Gothic" font-size="48.0" fill="#504460" transform="matrix(1.00, 0.00, -0.00, -1.00, 674.2, 506.9)">d</text><text xml:space="preserve" font-family="BankGothic-Light,Bank Gothic" font-size="48.0" fill="#504460" transform="matrix(1.00, 0.00, -0.00, -1.00, 709.2, 506.9)">a</text><text xml:space="preserve" font-family="BankGothic-Light,Bank Gothic" font-size="48.0" fill="#504460" transform="matrix(1.00, 0.00, -0.00, -1.00, 739.2, 506.9)">b</text><text xml:space="preserve" font-family="BankGothic-Light,Bank Gothic" font-size="48.0" fill="#504460" transform="matrix(1.00, 0.00, -0.00, -1.00, 769.6, 506.9)">l</text><text xml:space="preserve" font-family="BankGothic-Light,Bank Gothic" font-size="48.0" fill="#504460" transform="matrix(1.00, 0.00, -0.00, -1.00, 795.3, 506.9)">e</text><text xml:space="preserve" font-family="BankGothic-Light,Bank Gothic" font-size="48.0" fill="#504460" transform="matrix(1.00, 0.00, -0.00, -1.00, 823.2, 506.9)"> </text><text xml:space="preserve" font-family="BankGothic-Light,Bank Gothic" font-size="48.0" fill="#504460" transform="matrix(1.00, 0.00, -0.00, -1.00, 841.1, 506.9)">a</text><text xml:space="preserve" font-family="BankGothic-Light,Bank Gothic" font-size="48.0" fill="#504460" transform="matrix(1.00, 0.00, -0.00, -1.00, 871.2, 506.9)">n</text><text xml:space="preserve" font-family="BankGothic-Light,Bank Gothic" font-size="48.0" fill="#504460" transform="matrix(1.00, 0.00, -0.00, -1.00, 904.1, 506.9)">d</text><text xml:space="preserve" font-family="BankGothic-Light,Bank Gothic" font-size="48.0" fill="#504460" transform="matrix(1.00, 0.00, -0.00, -1.00, 939.1, 506.9)"> </text><text xml:space="preserve" font-family="BankGothic-Light,Bank Gothic" font-size="48.0" fill="#504460" transform="matrix(1.00, 0.00, -0.00, -1.00, 957.1, 506.9)">r</text><text xml:space="preserve" font-family="BankGothic-Light,Bank Gothic" font-size="48.0" fill="#504460" transform="matrix(1.00, 0.00, -0.00, -1.00, 986.5, 506.9)">e</text><text xml:space="preserve" font-family="BankGothic-Light,Bank Gothic" font-size="48.0" fill="#504460" transform="matrix(1.00, 0.00, -0.00, -1.00, 1014.4, 506.9)">u</text><text xml:space="preserve" font-family="BankGothic-Light,Bank Gothic" font-size="48.0" fill="#504460" transform="matrix(1.00, 0.00, -0.00, -1.00, 1046.4, 506.9)">s</text><text xml:space="preserve" font-family="BankGothic-Light,Bank Gothic" font-size="48.0" fill="#504460" transform="matrix(1.00, 0.00, -0.00, -1.00, 1077.0, 506.9)">a</text><text xml:space="preserve" font-family="BankGothic-Light,Bank Gothic" font-size="48.0" fill="#504460" transform="matrix(1.00, 0.00, -0.00, -1.00, 1107.1, 506.9)">b</text><text xml:space="preserve" font-family="BankGothic-Light,Bank Gothic" font-size="48.0" fill="#504460" transform="matrix(1.00, 0.00, -0.00, -1.00, 1137.4, 506.9)">l</text><text xml:space="preserve" font-family="BankGothic-Light,Bank Gothic" font-size="48.0" fill="#504460" transform="matrix(1.00, 0.00, -0.00, -1.00, 1163.1, 506.9)">e</text><text xml:space="preserve" font-family="BankGothic-Light,Bank Gothic" font-size="48.0" fill="#504460" transform="matrix(1.00, 0.00, -0.00, -1.00, 1191.0, 506.9)"> </text><text xml:space="preserve" font-family="BankGothic-Light,Bank Gothic" font-size="48.0" fill="#504460" transform="matrix(1.00, 0.00, -0.00, -1.00, 1208.9, 506.9)">S</text><text xml:space="preserve" font-family="BankGothic-Light,Bank Gothic" font-size="48.0" fill="#504460" transform="matrix(1.00, 0.00, -0.00, -1.00, 1246.4, 506.9)">Q</text><text xml:space="preserve" font-family="BankGothic-Light,Bank Gothic" font-size="48.0" fill="#504460" transform="matrix(1.00, 0.00, -0.00, -1.00, 1287.4, 506.9)">L</text><text xml:space="preserve" font-family="BankGothic-Light,Bank Gothic" font-size="48.0" fill="#504460" transform="matrix(1.00, 0.00, -0.00, -1.00, 1318.7, 506.9)"> </text><text xml:space="preserve" font-family="BankGothic-Light,Bank Gothic" font-size="48.0" fill="#504460" transform="matrix(1.00, 0.00, -0.00, -1.00, 1336.7, 506.9)">c</text><text xml:space="preserve" font-family="BankGothic-Light,Bank Gothic" font-size="48.0" fill="#504460" transform="matrix(1.00, 0.00, -0.00, -1.00, 1366.2, 506.9)">o</text><text xml:space="preserve" font-family="BankGothic-Light,Bank Gothic" font-size="48.0" fill="#504460" transform="matrix(1.00, 0.00, -0.00, -1.00, 1399.3, 506.9)">d</text><text xml:space="preserve" font-family="BankGothic-Light,Bank Gothic" font-size="48.0" fill="#504460" transform="matrix(1.00, 0.00, -0.00, -1.00, 1434.3, 506.9)">e</text><text xml:space="preserve" font-family="BankGothic-Light,Bank Gothic" font-size="48.0" fill="#504460" transform="matrix(1.00, 0.00, -0.00, -1.00, 1462.2, 506.9)"> </text><text xml:space="preserve" font-family="BankGothic-Medium,Bank Gothic" font-size="56.0" fill="#05510A" transform="matrix(1.00, 0.00, -0.00, -1.00, 657.8, 403.4)">R</text><text xml:space="preserve" font-family="BankGothic-Medium,Bank Gothic" font-size="56.0" fill="#05510A" transform="matrix(1.00, 0.00, -0.00, -1.00, 702.7, 403.4)">y</text><text xml:space="preserve" font-family="BankGothic-Medium,Bank Gothic" font-size="56.0" fill="#05510A" transform="matrix(1.00, 0.00, -0.00, -1.00, 735.9, 403.4)">a</text><text xml:space="preserve" font-family="BankGothic-Medium,Bank Gothic" font-size="56.0" fill="#05510A" transform="matrix(1.00, 0.00, -0.00, -1.00, 772.1, 403.4)">n</text><text xml:space="preserve" font-family="BankGothic-Medium,Bank Gothic" font-size="56.0" fill="#05510A" transform="matrix(1.00, 0.00, -0.00, -1.00, 812.0, 403.4)"> </text><text xml:space="preserve" font-family="BankGothic-Medium,Bank Gothic" font-size="56.0" fill="#05510A" transform="matrix(1.00, 0.00, -0.00, -1.00, 833.6, 403.4)">B</text><text xml:space="preserve" font-family="BankGothic-Medium,Bank Gothic" font-size="56.0" fill="#05510A" transform="matrix(1.00, 0.00, -0.00, -1.00, 878.1, 403.4)">.</text><text xml:space="preserve" font-family="BankGothic-Medium,Bank Gothic" font-size="56.0" fill="#05510A" transform="matrix(1.00, 0.00, -0.00, -1.00, 896.6, 403.4)"> </text><text xml:space="preserve" font-family="BankGothic-Medium,Bank Gothic" font-size="56.0" fill="#05510A" transform="matrix(1.00, 0.00, -0.00, -1.00, 918.3, 403.4)">H</text><text xml:space="preserve" font-family="BankGothic-Medium,Bank Gothic" font-size="56.0" fill="#05510A" transform="matrix(1.00, 0.00, -0.00, -1.00, 967.6, 403.4)">a</text><text xml:space="preserve" font-family="BankGothic-Medium,Bank Gothic" font-size="56.0" fill="#05510A" transform="matrix(1.00, 0.00, -0.00, -1.00, 1003.8, 403.4)">r</text><text xml:space="preserve" font-family="BankGothic-Medium,Bank Gothic" font-size="56.0" fill="#05510A" transform="matrix(1.00, 0.00, -0.00, -1.00, 1040.2, 403.4)">v</text><text xml:space="preserve" font-family="BankGothic-Medium,Bank Gothic" font-size="56.0" fill="#05510A" transform="matrix(1.00, 0.00, -0.00, -1.00, 1075.6, 403.4)">e</text><text xml:space="preserve" font-family="BankGothic-Medium,Bank Gothic" font-size="56.0" fill="#05510A" transform="matrix(1.00, 0.00, -0.00, -1.00, 1109.6, 403.4)">y</text><text xml:space="preserve" font-family="BankGothic-Medium,Bank Gothic" font-size="56.0" fill="#05510A" transform="matrix(1.00, 0.00, -0.00, -1.00, 1142.8, 403.4)"> </text><text xml:space="preserve" font-family="BankGothic-Medium,Bank Gothic" font-size="56.0" fill="#05510A" transform="matrix(1.00, 0.00, -0.00, -1.00, 657.8, 287.4)">O</text><text xml:space="preserve" font-family="BankGothic-Medium,Bank Gothic" font-size="56.0" fill="#05510A" transform="matrix(1.00, 0.00, -0.00, -1.00, 707.0, 287.4)">c</text><text xml:space="preserve" font-family="BankGothic-Medium,Bank Gothic" font-size="56.0" fill="#05510A" transform="matrix(1.00, 0.00, -0.00, -1.00, 743.0, 287.4)">t</text><text xml:space="preserve" font-family="BankGothic-Medium,Bank Gothic" font-size="56.0" fill="#05510A" transform="matrix(1.00, 0.00, -0.00, -1.00, 776.1, 287.4)">o</text><text xml:space="preserve" font-family="BankGothic-Medium,Bank Gothic" font-size="56.0" fill="#05510A" transform="matrix(1.00, 0.00, -0.00, -1.00, 816.1, 287.4)">b</text><text xml:space="preserve" font-family="BankGothic-Medium,Bank Gothic" font-size="56.0" fill="#05510A" transform="matrix(1.00, 0.00, -0.00, -1.00, 852.9, 287.4)">e</text><text xml:space="preserve" font-family="BankGothic-Medium,Bank Gothic" font-size="56.0" fill="#05510A" transform="matrix(1.00, 0.00, -0.00, -1.00, 887.0, 287.4)">r</text><text xml:space="preserve" font-family="BankGothic-Medium,Bank Gothic" font-size="56.0" fill="#05510A" transform="matrix(1.00, 0.00, -0.00, -1.00, 923.4, 287.4)"> </text><text xml:space="preserve" font-family="BankGothic-Medium,Bank Gothic" font-size="56.0" fill="#05510A" transform="matrix(1.00, 0.00, -0.00, -1.00, 945.0, 287.4)">1</text><text xml:space="preserve" font-family="BankGothic-Medium,Bank Gothic" font-size="56.0" fill="#05510A" transform="matrix(1.00, 0.00, -0.00, -1.00, 988.3, 287.4)">4</text><text xml:space="preserve" font-family="BankGothic-Medium,Bank Gothic" font-size="56.0" fill="#05510A" transform="matrix(1.00, 0.00, -0.00, -1.00, 1031.6, 287.4)">,</text><text xml:space="preserve" font-family="BankGothic-Medium,Bank Gothic" font-size="56.0" fill="#05510A" transform="matrix(1.00, 0.00, -0.00, -1.00, 1050.1, 287.4)"> </text><text xml:space="preserve" font-family="BankGothic-Medium,Bank Gothic" font-size="56.0" fill="#05510A" transform="matrix(1.00, 0.00, -0.00, -1.00, 1071.8, 287.4)">2</text><text xml:space="preserve" font-family="BankGothic-Medium,Bank Gothic" font-size="56.0" fill="#05510A" transform="matrix(1.00, 0.00, -0.00, -1.00, 1115.1, 287.4)">0</text><text xml:space="preserve" font-family="BankGothic-Medium,Bank Gothic" font-size="56.0" fill="#05510A" transform="matrix(1.00, 0.00, -0.00, -1.00, 1158.4, 287.4)">1</text><text xml:space="preserve" font-family="BankGothic-Medium,Bank Gothic" font-size="56.0" fill="#05510A" transform="matrix(1.00, 0.00, -0.00, -1.00, 1201.7, 287.4)">4</text><image xlink:href="3FAE7DED75F7C1DE14FD40B4BC4CBD1B.png" width="193.00" height="193.00" transform="matrix(1.00, 0.00, -0.00, -1.00, 427.0, 456.0)" opacity="0.70"></image><image xlink:href="DB5870AEC8A419D4B4C3D1554C994A0D.png" width="240.00" height="240.00" transform="matrix(0.76, 0.00, -0.00, -0.76, 431.0, 452.7)"></image><path d="M 0.0 0.0 L 183.0 0.0 L 183.0 183.0 L 0.0 183.0 Z M 0.0 0.0 " fill="none" stroke="#F2F6F5" stroke-width="2.00" transform="matrix(1.00, 0.00, 0.00, -1.00, 431.0, 452.7)"></path><image xlink:href="BB64E4DC9CB631D26FEAB5260F4D3CF9.png" width="970.00" height="160.00" transform="matrix(1.00, 0.00, -0.00, -1.00, 356.0, 232.8)" opacity="0.70"></image><image xlink:href="06437B2BFEA584F1ADA290C0B8C7BECF.png" width="960.00" height="150.00" transform="matrix(1.00, 0.00, -0.00, -1.00, 360.0, 229.5)"></image><path d="M 0.0 0.0 L 960.0 0.0 L 960.0 150.0 L 0.0 150.0 Z M 0.0 0.0 " fill="none" stroke="#F2F6F5" stroke-width="2.00" transform="matrix(1.00, 0.00, 0.00, -1.00, 360.0, 229.5)"></path></g></svg>