<?xml version="1.0" encoding="UTF-8" standalone="no"?><svg xmlns="http://www.w3.org/2000/svg" xmlns:xlink="http://www.w3.org/1999/xlink" clip-rule="evenodd" stroke-miterlimit="10" viewBox="0 0 1680 1050"><desc>SVG generated by Keynote</desc><defs><linearGradient id="gradSh1.27" x1="0.0" y1="0.0" x2="100.0" y2="0.0" gradientUnits="userSpaceOnUse" gradientTransform="matrix(0.00, -9.40, -15.23, 0.00, 839.5, 995.0)"><stop offset="0.00000" stop-color="#FFFFFF"></stop><stop offset="0.01246" stop-color="#FEFEFE"></stop><stop offset="1.00000" stop-color="#D6D6D6"></stop></linearGradient></defs><g transform="matrix(1.00, 0.00, -0.00, -1.00, 0.0, 1050.0)"><path d="M 0.0 1050.0 L 1680.0 1050.0 L 1680.0 0.0 L 0.0 0.0 Z M 0.0 1050.0 " fill="#D3CCC3"></path><image xlink:href="../../8109EDB8-06C5-4C2E-86C8-B44BC6D319A9/assets/AA6AEDD8890ABBBCEE2D161D333D80F6.png" width="1549.00" height="966.00" transform="matrix(1.00, 0.00, -0.00, -1.00, 65.0, 1005.0)" opacity="0.60"></image><g><clipPath id="clip0x6000058b5660"><path d="M 79.0 71.0 L 79.0 979.0 C 79.0 987.3 85.7 994.0 94.0 994.0 L 1585.0 994.0 C 1593.3 994.0 1600.0 987.3 1600.0 979.0 L 1600.0 71.0 C 1600.0 62.7 1593.3 56.0 1585.0 56.0 L 94.0 56.0 C 85.7 56.0 79.0 62.7 79.0 71.0 Z M 79.0 71.0 "></path></clipPath><g clip-path="url(#clip0x6000058b5660)"><path d="M 79.0 71.0 L 79.0 979.0 C 79.0 987.3 85.7 994.0 94.0 994.0 L 1585.0 994.0 C 1593.3 994.0 1600.0 987.3 1600.0 979.0 L 1600.0 71.0 C 1600.0 62.7 1593.3 56.0 1585.0 56.0 L 94.0 56.0 C 85.7 56.0 79.0 62.7 79.0 71.0 Z M 79.0 71.0 " fill="url(#gradSh1.27)"></path></g></g><path d="M 1600.0 815.0 L 1631.0 815.0 L 1600.0 748.0 Z M 1600.0 815.0 " fill="#054009"></path><image xlink:href="../../8109EDB8-06C5-4C2E-86C8-B44BC6D319A9/assets/BAF4D404B80D4D5427E0C174CBFB1606.png" width="88.00" height="127.00" transform="matrix(1.00, 0.00, -0.00, -1.00, 1548.1, 932.2)" opacity="0.32"></image><path d="M 1551.0 815.3 L 1551.0 927.7 C 1551.0 929.5 1552.5 931.0 1554.3 931.0 L 1627.7 931.0 C 1629.5 931.0 1631.0 929.5 1631.0 927.7 L 1631.0 815.3 C 1631.0 813.5 1629.5 812.0 1627.7 812.0 L 1554.3 812.0 C 1552.5 812.0 1551.0 813.5 1551.0 815.3 Z M 1551.0 815.3 " fill="#0B5C18"></path><text xml:space="preserve" font-family="BankGothic-Medium,Bank Gothic" font-size="24.0" fill="#FFFFFF" transform="matrix(1.00, 0.00, -0.00, -1.00, 1582.5, 901.4)">P</text><text xml:space="preserve" font-family="BankGothic-Medium,Bank Gothic" font-size="24.0" fill="#FFFFFF" transform="matrix(1.00, 0.00, -0.00, -1.00, 1600.4, 901.4)"> </text><text xml:space="preserve" font-family="BankGothic-Medium,Bank Gothic" font-size="24.0" fill="#FFFFFF" transform="matrix(1.00, 0.00, -0.00, -1.00, 1582.5, 876.4)">P</text><text xml:space="preserve" font-family="BankGothic-Medium,Bank Gothic" font-size="24.0" fill="#FFFFFF" transform="matrix(1.00, 0.00, -0.00, -1.00, 1600.4, 876.4)"> </text><text xml:space="preserve" font-family="BankGothic-Medium,Bank Gothic" font-size="24.0" fill="#FFFFFF" transform="matrix(1.00, 0.00, -0.00, -1.00, 1582.5, 851.4)">D</text><text xml:space="preserve" font-family="BankGothic-Medium,Bank Gothic" font-size="24.0" fill="#FFFFFF" transform="matrix(1.00, 0.00, -0.00, -1.00, 1602.9, 851.4)"> </text><text xml:space="preserve" font-family="BankGothic-Medium,Bank Gothic" font-size="24.0" fill="#FFFFFF" transform="matrix(1.00, 0.00, -0.00, -1.00, 1582.5, 826.4)">C</text><text xml:space="preserve" font-family="BankGothic-Medium,Bank Gothic" font-size="86.0" fill="#05510A" transform="matrix(1.00, 0.00, -0.00, -1.00, 249.8, 835.3)">S</text><text xml:space="preserve" font-family="BankGothic-Medium,Bank Gothic" font-size="86.0" fill="#05510A" transform="matrix(1.00, 0.00, -0.00, -1.00, 319.3, 835.3)">Q</text><text xml:space="preserve" font-family="BankGothic-Medium,Bank Gothic" font-size="86.0" fill="#05510A" transform="matrix(1.00, 0.00, -0.00, -1.00, 394.8, 835.3)">L</text><text xml:space="preserve" font-family="BankGothic-Medium,Bank Gothic" font-size="86.0" fill="#05510A" transform="matrix(1.00, 0.00, -0.00, -1.00, 453.6, 835.3)"> </text><text xml:space="preserve" font-family="BankGothic-Medium,Bank Gothic" font-size="86.0" fill="#05510A" transform="matrix(1.00, 0.00, -0.00, -1.00, 486.9, 835.3)">i</text><text xml:space="preserve" font-family="BankGothic-Medium,Bank Gothic" font-size="86.0" fill="#05510A" transform="matrix(1.00, 0.00, -0.00, -1.00, 511.9, 835.3)">n</text><text xml:space="preserve" font-family="BankGothic-Medium,Bank Gothic" font-size="86.0" fill="#05510A" transform="matrix(1.00, 0.00, -0.00, -1.00, 573.1, 835.3)"> </text><text xml:space="preserve" font-family="BankGothic-Medium,Bank Gothic" font-size="86.0" fill="#05510A" transform="matrix(1.00, 0.00, -0.00, -1.00, 606.4, 835.3)">o</text><text xml:space="preserve" font-family="BankGothic-Medium,Bank Gothic" font-size="86.0" fill="#05510A" transform="matrix(1.00, 0.00, -0.00, -1.00, 667.9, 835.3)">t</text><text xml:space="preserve" font-family="BankGothic-Medium,Bank Gothic" font-size="86.0" fill="#05510A" transform="matrix(1.00, 0.00, -0.00, -1.00, 718.6, 835.3)">h</text><text xml:space="preserve" font-family="BankGothic-Medium,Bank Gothic" font-size="86.0" fill="#05510A" transform="matrix(1.00, 0.00, -0.00, -1.00, 780.4, 835.3)">e</text><text xml:space="preserve" font-family="BankGothic-Medium,Bank Gothic" font-size="86.0" fill="#05510A" transform="matrix(1.00, 0.00, -0.00, -1.00, 832.7, 835.3)">r</text><text xml:space="preserve" font-family="BankGothic-Medium,Bank Gothic" font-size="86.0" fill="#05510A" transform="matrix(1.00, 0.00, -0.00, -1.00, 888.6, 835.3)"> </text><text xml:space="preserve" font-family="BankGothic-Medium,Bank Gothic" font-size="86.0" fill="#05510A" transform="matrix(1.00, 0.00, -0.00, -1.00, 921.8, 835.3)">l</text><text xml:space="preserve" font-family="BankGothic-Medium,Bank Gothic" font-size="86.0" fill="#05510A" transform="matrix(1.00, 0.00, -0.00, -1.00, 969.3, 835.3)">a</text><text xml:space="preserve" font-family="BankGothic-Medium,Bank Gothic" font-size="86.0" fill="#05510A" transform="matrix(1.00, 0.00, -0.00, -1.00, 1024.9, 835.3)">n</text><text xml:space="preserve" font-family="BankGothic-Medium,Bank Gothic" font-size="86.0" fill="#05510A" transform="matrix(1.00, 0.00, -0.00, -1.00, 1086.1, 835.3)">g</text><text xml:space="preserve" font-family="BankGothic-Medium,Bank Gothic" font-size="86.0" fill="#05510A" transform="matrix(1.00, 0.00, -0.00, -1.00, 1145.6, 835.3)">u</text><text xml:space="preserve" font-family="BankGothic-Medium,Bank Gothic" font-size="86.0" fill="#05510A" transform="matrix(1.00, 0.00, -0.00, -1.00, 1204.9, 835.3)">a</text><text xml:space="preserve" font-family="BankGothic-Medium,Bank Gothic" font-size="86.0" fill="#05510A" transform="matrix(1.00, 0.00, -0.00, -1.00, 1260.4, 835.3)">g</text><text xml:space="preserve" font-family="BankGothic-Medium,Bank Gothic" font-size="86.0" fill="#05510A" transform="matrix(1.00, 0.00, -0.00, -1.00, 1319.9, 835.3)">e</text><text xml:space="preserve" font-family="BankGothic-Medium,Bank Gothic" font-size="86.0" fill="#05510A" transform="matrix(1.00, 0.00, -0.00, -1.00, 1372.2, 835.3)">s</text><text xml:space="preserve" font-family="BankGothic-Light,Bank Gothic" font-size="71.8" fill="#C7C0B7" transform="matrix(1.00, 0.00, -0.00, -1.00, 264.0, 601.4)">•</text><text xml:space="preserve" font-family="BankGothic-Light,Bank Gothic" font-size="42.0" fill="#504460" transform="matrix(1.00, 0.00, -0.00, -1.00, 306.4, 613.9)">R</text><text xml:space="preserve" font-family="BankGothic-Light,Bank Gothic" font-size="42.0" fill="#504460" transform="matrix(1.00, 0.00, -0.00, -1.00, 338.4, 613.9)"> </text><text xml:space="preserve" font-family="BankGothic-Light,Bank Gothic" font-size="42.0" fill="#504460" transform="matrix(1.00, 0.00, -0.00, -1.00, 354.1, 613.9)">w</text><text xml:space="preserve" font-family="BankGothic-Light,Bank Gothic" font-size="42.0" fill="#504460" transform="matrix(1.00, 0.00, -0.00, -1.00, 385.0, 613.9)">i</text><text xml:space="preserve" font-family="BankGothic-Light,Bank Gothic" font-size="42.0" fill="#504460" transform="matrix(1.00, 0.00, -0.00, -1.00, 396.4, 613.9)">t</text><text xml:space="preserve" font-family="BankGothic-Light,Bank Gothic" font-size="42.0" fill="#504460" transform="matrix(1.00, 0.00, -0.00, -1.00, 418.5, 613.9)">h</text><text xml:space="preserve" font-family="BankGothic-Light,Bank Gothic" font-size="42.0" fill="#504460" transform="matrix(1.00, 0.00, -0.00, -1.00, 447.6, 613.9)"> </text><text xml:space="preserve" font-family="BankGothic-Light,Bank Gothic" font-size="42.0" fill="#504460" transform="matrix(1.00, 0.00, -0.00, -1.00, 463.3, 613.9)">l</text><text xml:space="preserve" font-family="BankGothic-Light,Bank Gothic" font-size="42.0" fill="#504460" transform="matrix(1.00, 0.00, -0.00, -1.00, 485.8, 613.9)">i</text><text xml:space="preserve" font-family="BankGothic-Light,Bank Gothic" font-size="42.0" fill="#504460" transform="matrix(1.00, 0.00, -0.00, -1.00, 497.2, 613.9)">b</text><text xml:space="preserve" font-family="BankGothic-Light,Bank Gothic" font-size="42.0" fill="#504460" transform="matrix(1.00, 0.00, -0.00, -1.00, 523.8, 613.9)">r</text><text xml:space="preserve" font-family="BankGothic-Light,Bank Gothic" font-size="42.0" fill="#504460" transform="matrix(1.00, 0.00, -0.00, -1.00, 549.5, 613.9)">a</text><text xml:space="preserve" font-family="BankGothic-Light,Bank Gothic" font-size="42.0" fill="#504460" transform="matrix(1.00, 0.00, -0.00, -1.00, 575.8, 613.9)">r</text><text xml:space="preserve" font-family="BankGothic-Light,Bank Gothic" font-size="42.0" fill="#504460" transform="matrix(1.00, 0.00, -0.00, -1.00, 601.6, 613.9)">i</text><text xml:space="preserve" font-family="BankGothic-Light,Bank Gothic" font-size="42.0" fill="#504460" transform="matrix(1.00, 0.00, -0.00, -1.00, 613.0, 613.9)">e</text><text xml:space="preserve" font-family="BankGothic-Light,Bank Gothic" font-size="42.0" fill="#504460" transform="matrix(1.00, 0.00, -0.00, -1.00, 637.4, 613.9)">s</text><text xml:space="preserve" font-family="BankGothic-Light,Bank Gothic" font-size="42.0" fill="#504460" transform="matrix(1.00, 0.00, -0.00, -1.00, 664.2, 613.9)"> </text><g><clipPath id="clip0x600005ab7b20"><path d="M 305.4 608.8 L 338.4 608.8 L 338.4 612.9 L 305.4 612.9 Z M 305.4 608.8 "></path></clipPath><g clip-path="url(#clip0x600005ab7b20)"><path d="M 71.4 131.2 L 103.4 131.2 " fill="none" stroke="#504460" stroke-width="2.10" transform="matrix(1.00, 0.00, 0.00, -1.00, 235.0, 742.0)"></path></g></g><text xml:space="preserve" font-family="BankGothic-Light,Bank Gothic" font-size="71.8" fill="#C7C0B7" transform="matrix(1.00, 0.00, -0.00, -1.00, 299.0, 506.4)">•</text><text xml:space="preserve" font-family="BankGothic-Light,Bank Gothic" font-size="42.0" fill="#504460" transform="matrix(1.00, 0.00, -0.00, -1.00, 341.4, 518.9)">R</text><text xml:space="preserve" font-family="BankGothic-Light,Bank Gothic" font-size="42.0" fill="#504460" transform="matrix(1.00, 0.00, -0.00, -1.00, 373.4, 518.9)">P</text><text xml:space="preserve" font-family="BankGothic-Light,Bank Gothic" font-size="42.0" fill="#504460" transform="matrix(1.00, 0.00, -0.00, -1.00, 404.3, 518.9)">o</text><text xml:space="preserve" font-family="BankGothic-Light,Bank Gothic" font-size="42.0" fill="#504460" transform="matrix(1.00, 0.00, -0.00, -1.00, 433.3, 518.9)">s</text><text xml:space="preserve" font-family="BankGothic-Light,Bank Gothic" font-size="42.0" fill="#504460" transform="matrix(1.00, 0.00, -0.00, -1.00, 460.0, 518.9)">t</text><text xml:space="preserve" font-family="BankGothic-Light,Bank Gothic" font-size="42.0" fill="#504460" transform="matrix(1.00, 0.00, -0.00, -1.00, 482.1, 518.9)">g</text><text xml:space="preserve" font-family="BankGothic-Light,Bank Gothic" font-size="42.0" fill="#504460" transform="matrix(1.00, 0.00, -0.00, -1.00, 509.9, 518.9)">r</text><text xml:space="preserve" font-family="BankGothic-Light,Bank Gothic" font-size="42.0" fill="#504460" transform="matrix(1.00, 0.00, -0.00, -1.00, 535.6, 518.9)">e</text><text xml:space="preserve" font-family="BankGothic-Light,Bank Gothic" font-size="42.0" fill="#504460" transform="matrix(1.00, 0.00, -0.00, -1.00, 560.0, 518.9)">S</text><text xml:space="preserve" font-family="BankGothic-Light,Bank Gothic" font-size="42.0" fill="#504460" transform="matrix(1.00, 0.00, -0.00, -1.00, 592.8, 518.9)">Q</text><text xml:space="preserve" font-family="BankGothic-Light,Bank Gothic" font-size="42.0" fill="#504460" transform="matrix(1.00, 0.00, -0.00, -1.00, 628.7, 518.9)">L</text><text xml:space="preserve" font-family="BankGothic-Light,Bank Gothic" font-size="42.0" fill="#504460" transform="matrix(1.00, 0.00, -0.00, -1.00, 656.1, 518.9)">,</text><text xml:space="preserve" font-family="BankGothic-Light,Bank Gothic" font-size="42.0" fill="#504460" transform="matrix(1.00, 0.00, -0.00, -1.00, 671.8, 518.9)"> </text><text xml:space="preserve" font-family="BankGothic-Light,Bank Gothic" font-size="42.0" fill="#504460" transform="matrix(1.00, 0.00, -0.00, -1.00, 687.5, 518.9)">d</text><text xml:space="preserve" font-family="BankGothic-Light,Bank Gothic" font-size="42.0" fill="#504460" transform="matrix(1.00, 0.00, -0.00, -1.00, 718.1, 518.9)">p</text><text xml:space="preserve" font-family="BankGothic-Light,Bank Gothic" font-size="42.0" fill="#504460" transform="matrix(1.00, 0.00, -0.00, -1.00, 743.6, 518.9)">l</text><text xml:space="preserve" font-family="BankGothic-Light,Bank Gothic" font-size="42.0" fill="#504460" transform="matrix(1.00, 0.00, -0.00, -1.00, 766.0, 518.9)">y</text><text xml:space="preserve" font-family="BankGothic-Light,Bank Gothic" font-size="42.0" fill="#504460" transform="matrix(1.00, 0.00, -0.00, -1.00, 789.7, 518.9)">r</text><text xml:space="preserve" font-family="BankGothic-Light,Bank Gothic" font-size="42.0" fill="#504460" transform="matrix(1.00, 0.00, -0.00, -1.00, 815.5, 518.9)"> </text><g><clipPath id="clip0x600005ab85a0"><path d="M 340.4 513.8 L 656.1 513.8 L 656.1 517.9 L 340.4 517.9 Z M 340.4 513.8 "></path></clipPath><g clip-path="url(#clip0x600005ab85a0)"><path d="M 106.4 226.2 L 421.1 226.2 " fill="none" stroke="#504460" stroke-width="2.10" transform="matrix(1.00, 0.00, 0.00, -1.00, 235.0, 742.0)"></path></g></g><g><clipPath id="clip0x600005ab87e0"><path d="M 686.5 513.8 L 815.5 513.8 L 815.5 517.9 L 686.5 517.9 Z M 686.5 513.8 "></path></clipPath><g clip-path="url(#clip0x600005ab87e0)"><path d="M 452.5 226.2 L 580.5 226.2 " fill="none" stroke="#504460" stroke-width="2.10" transform="matrix(1.00, 0.00, 0.00, -1.00, 235.0, 742.0)"></path></g></g><text xml:space="preserve" font-family="BankGothic-Light,Bank Gothic" font-size="71.8" fill="#C7C0B7" transform="matrix(1.00, 0.00, -0.00, -1.00, 264.0, 316.4)">•</text><text xml:space="preserve" font-family="BankGothic-Light,Bank Gothic" font-size="42.0" fill="#504460" transform="matrix(1.00, 0.00, -0.00, -1.00, 306.4, 328.9)">P</text><text xml:space="preserve" font-family="BankGothic-Light,Bank Gothic" font-size="42.0" fill="#504460" transform="matrix(1.00, 0.00, -0.00, -1.00, 337.3, 328.9)">y</text><text xml:space="preserve" font-family="BankGothic-Light,Bank Gothic" font-size="42.0" fill="#504460" transform="matrix(1.00, 0.00, -0.00, -1.00, 361.0, 328.9)">t</text><text xml:space="preserve" font-family="BankGothic-Light,Bank Gothic" font-size="42.0" fill="#504460" transform="matrix(1.00, 0.00, -0.00, -1.00, 383.0, 328.9)">h</text><text xml:space="preserve" font-family="BankGothic-Light,Bank Gothic" font-size="42.0" fill="#504460" transform="matrix(1.00, 0.00, -0.00, -1.00, 412.2, 328.9)">o</text><text xml:space="preserve" font-family="BankGothic-Light,Bank Gothic" font-size="42.0" fill="#504460" transform="matrix(1.00, 0.00, -0.00, -1.00, 441.2, 328.9)">n</text><text xml:space="preserve" font-family="BankGothic-Light,Bank Gothic" font-size="42.0" fill="#504460" transform="matrix(1.00, 0.00, -0.00, -1.00, 470.0, 328.9)"> </text><text xml:space="preserve" font-family="BankGothic-Light,Bank Gothic" font-size="42.0" fill="#504460" transform="matrix(1.00, 0.00, -0.00, -1.00, 485.7, 328.9)">w</text><text xml:space="preserve" font-family="BankGothic-Light,Bank Gothic" font-size="42.0" fill="#504460" transform="matrix(1.00, 0.00, -0.00, -1.00, 516.6, 328.9)">i</text><text xml:space="preserve" font-family="BankGothic-Light,Bank Gothic" font-size="42.0" fill="#504460" transform="matrix(1.00, 0.00, -0.00, -1.00, 528.0, 328.9)">t</text><text xml:space="preserve" font-family="BankGothic-Light,Bank Gothic" font-size="42.0" fill="#504460" transform="matrix(1.00, 0.00, -0.00, -1.00, 550.1, 328.9)">h</text><text xml:space="preserve" font-family="BankGothic-Light,Bank Gothic" font-size="42.0" fill="#504460" transform="matrix(1.00, 0.00, -0.00, -1.00, 579.2, 328.9)"> </text><text xml:space="preserve" font-family="BankGothic-Light,Bank Gothic" font-size="42.0" fill="#504460" transform="matrix(1.00, 0.00, -0.00, -1.00, 594.9, 328.9)">m</text><text xml:space="preserve" font-family="BankGothic-Light,Bank Gothic" font-size="42.0" fill="#504460" transform="matrix(1.00, 0.00, -0.00, -1.00, 626.1, 328.9)">o</text><text xml:space="preserve" font-family="BankGothic-Light,Bank Gothic" font-size="42.0" fill="#504460" transform="matrix(1.00, 0.00, -0.00, -1.00, 655.1, 328.9)">d</text><text xml:space="preserve" font-family="BankGothic-Light,Bank Gothic" font-size="42.0" fill="#504460" transform="matrix(1.00, 0.00, -0.00, -1.00, 685.7, 328.9)">u</text><text xml:space="preserve" font-family="BankGothic-Light,Bank Gothic" font-size="42.0" fill="#504460" transform="matrix(1.00, 0.00, -0.00, -1.00, 713.7, 328.9)">l</text><text xml:space="preserve" font-family="BankGothic-Light,Bank Gothic" font-size="42.0" fill="#504460" transform="matrix(1.00, 0.00, -0.00, -1.00, 736.2, 328.9)">e</text><text xml:space="preserve" font-family="BankGothic-Light,Bank Gothic" font-size="42.0" fill="#504460" transform="matrix(1.00, 0.00, -0.00, -1.00, 760.6, 328.9)">s</text><text xml:space="preserve" font-family="BankGothic-Light,Bank Gothic" font-size="42.0" fill="#504460" transform="matrix(1.00, 0.00, -0.00, -1.00, 787.3, 328.9)"> </text><g><clipPath id="clip0x608007eb6680"><path d="M 305.4 323.8 L 470.0 323.8 L 470.0 327.9 L 305.4 327.9 Z M 305.4 323.8 "></path></clipPath><g clip-path="url(#clip0x608007eb6680)"><path d="M 71.4 416.2 L 235.0 416.2 " fill="none" stroke="#504460" stroke-width="2.10" transform="matrix(1.00, 0.00, 0.00, -1.00, 235.0, 742.0)"></path></g></g><text xml:space="preserve" font-family="BankGothic-Light,Bank Gothic" font-size="71.8" fill="#C7C0B7" transform="matrix(1.00, 0.00, -0.00, -1.00, 299.0, 221.4)">•</text><text xml:space="preserve" font-family="BankGothic-Light,Bank Gothic" font-size="42.0" fill="#504460" transform="matrix(1.00, 0.00, -0.00, -1.00, 341.4, 233.9)">p</text><text xml:space="preserve" font-family="BankGothic-Light,Bank Gothic" font-size="42.0" fill="#504460" transform="matrix(1.00, 0.00, -0.00, -1.00, 366.8, 233.9)">s</text><text xml:space="preserve" font-family="BankGothic-Light,Bank Gothic" font-size="42.0" fill="#504460" transform="matrix(1.00, 0.00, -0.00, -1.00, 393.6, 233.9)">y</text><text xml:space="preserve" font-family="BankGothic-Light,Bank Gothic" font-size="42.0" fill="#504460" transform="matrix(1.00, 0.00, -0.00, -1.00, 417.3, 233.9)">c</text><text xml:space="preserve" font-family="BankGothic-Light,Bank Gothic" font-size="42.0" fill="#504460" transform="matrix(1.00, 0.00, -0.00, -1.00, 443.1, 233.9)">o</text><text xml:space="preserve" font-family="BankGothic-Light,Bank Gothic" font-size="42.0" fill="#504460" transform="matrix(1.00, 0.00, -0.00, -1.00, 472.1, 233.9)">p</text><text xml:space="preserve" font-family="BankGothic-Light,Bank Gothic" font-size="42.0" fill="#504460" transform="matrix(1.00, 0.00, -0.00, -1.00, 497.6, 233.9)">g</text><text xml:space="preserve" font-family="BankGothic-Light,Bank Gothic" font-size="42.0" fill="#504460" transform="matrix(1.00, 0.00, -0.00, -1.00, 525.4, 233.9)">2</text><text xml:space="preserve" font-family="BankGothic-Light,Bank Gothic" font-size="42.0" fill="#504460" transform="matrix(1.00, 0.00, -0.00, -1.00, 556.8, 233.9)">,</text><text xml:space="preserve" font-family="BankGothic-Light,Bank Gothic" font-size="42.0" fill="#504460" transform="matrix(1.00, 0.00, -0.00, -1.00, 572.5, 233.9)"> </text><text xml:space="preserve" font-family="BankGothic-Light,Bank Gothic" font-size="42.0" fill="#504460" transform="matrix(1.00, 0.00, -0.00, -1.00, 588.2, 233.9)">S</text><text xml:space="preserve" font-family="BankGothic-Light,Bank Gothic" font-size="42.0" fill="#504460" transform="matrix(1.00, 0.00, -0.00, -1.00, 621.0, 233.9)">Q</text><text xml:space="preserve" font-family="BankGothic-Light,Bank Gothic" font-size="42.0" fill="#504460" transform="matrix(1.00, 0.00, -0.00, -1.00, 656.8, 233.9)">L</text><text xml:space="preserve" font-family="BankGothic-Light,Bank Gothic" font-size="42.0" fill="#504460" transform="matrix(1.00, 0.00, -0.00, -1.00, 684.3, 233.9)">A</text><text xml:space="preserve" font-family="BankGothic-Light,Bank Gothic" font-size="42.0" fill="#504460" transform="matrix(1.00, 0.00, -0.00, -1.00, 714.8, 233.9)">l</text><text xml:space="preserve" font-family="BankGothic-Light,Bank Gothic" font-size="42.0" fill="#504460" transform="matrix(1.00, 0.00, -0.00, -1.00, 737.3, 233.9)">c</text><text xml:space="preserve" font-family="BankGothic-Light,Bank Gothic" font-size="42.0" fill="#504460" transform="matrix(1.00, 0.00, -0.00, -1.00, 763.1, 233.9)">h</text><text xml:space="preserve" font-family="BankGothic-Light,Bank Gothic" font-size="42.0" fill="#504460" transform="matrix(1.00, 0.00, -0.00, -1.00, 792.3, 233.9)">e</text><text xml:space="preserve" font-family="BankGothic-Light,Bank Gothic" font-size="42.0" fill="#504460" transform="matrix(1.00, 0.00, -0.00, -1.00, 816.7, 233.9)">m</text><text xml:space="preserve" font-family="BankGothic-Light,Bank Gothic" font-size="42.0" fill="#504460" transform="matrix(1.00, 0.00, -0.00, -1.00, 847.9, 233.9)">y</text><g><clipPath id="clip0x608007eb7160"><path d="M 340.4 228.8 L 556.8 228.8 L 556.8 232.9 L 340.4 232.9 Z M 340.4 228.8 "></path></clipPath><g clip-path="url(#clip0x608007eb7160)"><path d="M 106.4 511.2 L 321.8 511.2 " fill="none" stroke="#504460" stroke-width="2.10" transform="matrix(1.00, 0.00, 0.00, -1.00, 235.0, 742.0)"></path></g></g><g><clipPath id="clip0x608007eb73a0"><path d="M 587.2 228.8 L 871.5 228.8 L 871.5 232.9 L 587.2 232.9 Z M 587.2 228.8 "></path></clipPath><g clip-path="url(#clip0x608007eb73a0)"><path d="M 353.2 511.2 L 636.5 511.2 " fill="none" stroke="#504460" stroke-width="2.10" transform="matrix(1.00, 0.00, 0.00, -1.00, 235.0, 742.0)"></path></g></g><image xlink:href="F5C2103C0CD70AF944982BFAE96A1C12.png" width="200.00" height="152.00" transform="matrix(1.00, 0.00, -0.00, -1.00, 1066.3, 666.7)"></image><image xlink:href="ACD1DC8C2A4F997F4EED99F55BE83F49.png" width="800.00" height="800.00" transform="matrix(0.26, 0.00, -0.00, -0.26, 1063.8, 390.2)"></image><text xml:space="preserve" font-family="BankGothic-Medium,Bank Gothic" font-size="39.0" fill="#05510A" transform="matrix(1.00, 0.00, -0.00, -1.00, 167.7, 770.7)">(</text><text xml:space="preserve" font-family="BankGothic-Medium,Bank Gothic" font-size="39.0" fill="#05510A" transform="matrix(1.00, 0.00, -0.00, -1.00, 180.6, 770.7)">o</text><text xml:space="preserve" font-family="BankGothic-Medium,Bank Gothic" font-size="39.0" fill="#05510A" transform="matrix(1.00, 0.00, -0.00, -1.00, 208.5, 770.7)">r</text><text xml:space="preserve" font-family="BankGothic-Medium,Bank Gothic" font-size="39.0" fill="#05510A" transform="matrix(1.00, 0.00, -0.00, -1.00, 233.8, 770.7)">,</text><text xml:space="preserve" font-family="BankGothic-Medium,Bank Gothic" font-size="39.0" fill="#05510A" transform="matrix(1.00, 0.00, -0.00, -1.00, 246.7, 770.7)"> </text><text xml:space="preserve" font-family="BankGothic-Medium,Bank Gothic" font-size="39.0" fill="#05510A" transform="matrix(1.00, 0.00, -0.00, -1.00, 261.8, 770.7)">a</text><text xml:space="preserve" font-family="BankGothic-Medium,Bank Gothic" font-size="39.0" fill="#05510A" transform="matrix(1.00, 0.00, -0.00, -1.00, 287.0, 770.7)">c</text><text xml:space="preserve" font-family="BankGothic-Medium,Bank Gothic" font-size="39.0" fill="#05510A" transform="matrix(1.00, 0.00, -0.00, -1.00, 312.1, 770.7)">c</text><text xml:space="preserve" font-family="BankGothic-Medium,Bank Gothic" font-size="39.0" fill="#05510A" transform="matrix(1.00, 0.00, -0.00, -1.00, 337.2, 770.7)">e</text><text xml:space="preserve" font-family="BankGothic-Medium,Bank Gothic" font-size="39.0" fill="#05510A" transform="matrix(1.00, 0.00, -0.00, -1.00, 360.9, 770.7)">s</text><text xml:space="preserve" font-family="BankGothic-Medium,Bank Gothic" font-size="39.0" fill="#05510A" transform="matrix(1.00, 0.00, -0.00, -1.00, 386.8, 770.7)">s</text><text xml:space="preserve" font-family="BankGothic-Medium,Bank Gothic" font-size="39.0" fill="#05510A" transform="matrix(1.00, 0.00, -0.00, -1.00, 412.7, 770.7)">i</text><text xml:space="preserve" font-family="BankGothic-Medium,Bank Gothic" font-size="39.0" fill="#05510A" transform="matrix(1.00, 0.00, -0.00, -1.00, 424.0, 770.7)">n</text><text xml:space="preserve" font-family="BankGothic-Medium,Bank Gothic" font-size="39.0" fill="#05510A" transform="matrix(1.00, 0.00, -0.00, -1.00, 451.8, 770.7)">g</text><text xml:space="preserve" font-family="BankGothic-Medium,Bank Gothic" font-size="39.0" fill="#05510A" transform="matrix(1.00, 0.00, -0.00, -1.00, 478.8, 770.7)"> </text><text xml:space="preserve" font-family="BankGothic-Medium,Bank Gothic" font-size="39.0" fill="#05510A" transform="matrix(1.00, 0.00, -0.00, -1.00, 493.9, 770.7)">d</text><text xml:space="preserve" font-family="BankGothic-Medium,Bank Gothic" font-size="39.0" fill="#05510A" transform="matrix(1.00, 0.00, -0.00, -1.00, 520.9, 770.7)">a</text><text xml:space="preserve" font-family="BankGothic-Medium,Bank Gothic" font-size="39.0" fill="#05510A" transform="matrix(1.00, 0.00, -0.00, -1.00, 546.1, 770.7)">t</text><text xml:space="preserve" font-family="BankGothic-Medium,Bank Gothic" font-size="39.0" fill="#05510A" transform="matrix(1.00, 0.00, -0.00, -1.00, 569.1, 770.7)">a</text><text xml:space="preserve" font-family="BankGothic-Medium,Bank Gothic" font-size="39.0" fill="#05510A" transform="matrix(1.00, 0.00, -0.00, -1.00, 594.3, 770.7)"> </text><text xml:space="preserve" font-family="BankGothic-Medium,Bank Gothic" font-size="39.0" fill="#05510A" transform="matrix(1.00, 0.00, -0.00, -1.00, 609.4, 770.7)">i</text><text xml:space="preserve" font-family="BankGothic-Medium,Bank Gothic" font-size="39.0" fill="#05510A" transform="matrix(1.00, 0.00, -0.00, -1.00, 620.8, 770.7)">n</text><text xml:space="preserve" font-family="BankGothic-Medium,Bank Gothic" font-size="39.0" fill="#05510A" transform="matrix(1.00, 0.00, -0.00, -1.00, 648.5, 770.7)"> </text><text xml:space="preserve" font-family="BankGothic-Medium,Bank Gothic" font-size="39.0" fill="#05510A" transform="matrix(1.00, 0.00, -0.00, -1.00, 663.6, 770.7)">d</text><text xml:space="preserve" font-family="BankGothic-Medium,Bank Gothic" font-size="39.0" fill="#05510A" transform="matrix(1.00, 0.00, -0.00, -1.00, 690.7, 770.7)">a</text><text xml:space="preserve" font-family="BankGothic-Medium,Bank Gothic" font-size="39.0" fill="#05510A" transform="matrix(1.00, 0.00, -0.00, -1.00, 715.9, 770.7)">t</text><text xml:space="preserve" font-family="BankGothic-Medium,Bank Gothic" font-size="39.0" fill="#05510A" transform="matrix(1.00, 0.00, -0.00, -1.00, 738.9, 770.7)">a</text><text xml:space="preserve" font-family="BankGothic-Medium,Bank Gothic" font-size="39.0" fill="#05510A" transform="matrix(1.00, 0.00, -0.00, -1.00, 764.1, 770.7)">b</text><text xml:space="preserve" font-family="BankGothic-Medium,Bank Gothic" font-size="39.0" fill="#05510A" transform="matrix(1.00, 0.00, -0.00, -1.00, 789.7, 770.7)">a</text><text xml:space="preserve" font-family="BankGothic-Medium,Bank Gothic" font-size="39.0" fill="#05510A" transform="matrix(1.00, 0.00, -0.00, -1.00, 814.9, 770.7)">s</text><text xml:space="preserve" font-family="BankGothic-Medium,Bank Gothic" font-size="39.0" fill="#05510A" transform="matrix(1.00, 0.00, -0.00, -1.00, 840.8, 770.7)">e</text><text xml:space="preserve" font-family="BankGothic-Medium,Bank Gothic" font-size="39.0" fill="#05510A" transform="matrix(1.00, 0.00, -0.00, -1.00, 864.5, 770.7)">s</text><text xml:space="preserve" font-family="BankGothic-Medium,Bank Gothic" font-size="39.0" fill="#05510A" transform="matrix(1.00, 0.00, -0.00, -1.00, 890.3, 770.7)"> </text><text xml:space="preserve" font-family="BankGothic-Medium,Bank Gothic" font-size="39.0" fill="#05510A" transform="matrix(1.00, 0.00, -0.00, -1.00, 905.4, 770.7)">v</text><text xml:space="preserve" font-family="BankGothic-Medium,Bank Gothic" font-size="39.0" fill="#05510A" transform="matrix(1.00, 0.00, -0.00, -1.00, 930.1, 770.7)">i</text><text xml:space="preserve" font-family="BankGothic-Medium,Bank Gothic" font-size="39.0" fill="#05510A" transform="matrix(1.00, 0.00, -0.00, -1.00, 941.4, 770.7)">a</text><text xml:space="preserve" font-family="BankGothic-Medium,Bank Gothic" font-size="39.0" fill="#05510A" transform="matrix(1.00, 0.00, -0.00, -1.00, 966.6, 770.7)"> </text><text xml:space="preserve" font-family="BankGothic-Medium,Bank Gothic" font-size="39.0" fill="#05510A" transform="matrix(1.00, 0.00, -0.00, -1.00, 981.7, 770.7)">s</text><text xml:space="preserve" font-family="BankGothic-Medium,Bank Gothic" font-size="39.0" fill="#05510A" transform="matrix(1.00, 0.00, -0.00, -1.00, 1007.6, 770.7)">q</text><text xml:space="preserve" font-family="BankGothic-Medium,Bank Gothic" font-size="39.0" fill="#05510A" transform="matrix(1.00, 0.00, -0.00, -1.00, 1035.4, 770.7)">l</text><text xml:space="preserve" font-family="BankGothic-Medium,Bank Gothic" font-size="39.0" fill="#05510A" transform="matrix(1.00, 0.00, -0.00, -1.00, 1057.0, 770.7)"> </text><text xml:space="preserve" font-family="BankGothic-Medium,Bank Gothic" font-size="39.0" fill="#05510A" transform="matrix(1.00, 0.00, -0.00, -1.00, 1072.1, 770.7)">i</text><text xml:space="preserve" font-family="BankGothic-Medium,Bank Gothic" font-size="39.0" fill="#05510A" transform="matrix(1.00, 0.00, -0.00, -1.00, 1083.4, 770.7)">n</text><text xml:space="preserve" font-family="BankGothic-Medium,Bank Gothic" font-size="39.0" fill="#05510A" transform="matrix(1.00, 0.00, -0.00, -1.00, 1111.2, 770.7)"> </text><text xml:space="preserve" font-family="BankGothic-Medium,Bank Gothic" font-size="39.0" fill="#05510A" transform="matrix(1.00, 0.00, -0.00, -1.00, 1126.3, 770.7)">o</text><text xml:space="preserve" font-family="BankGothic-Medium,Bank Gothic" font-size="39.0" fill="#05510A" transform="matrix(1.00, 0.00, -0.00, -1.00, 1154.2, 770.7)">t</text><text xml:space="preserve" font-family="BankGothic-Medium,Bank Gothic" font-size="39.0" fill="#05510A" transform="matrix(1.00, 0.00, -0.00, -1.00, 1177.2, 770.7)">h</text><text xml:space="preserve" font-family="BankGothic-Medium,Bank Gothic" font-size="39.0" fill="#05510A" transform="matrix(1.00, 0.00, -0.00, -1.00, 1205.2, 770.7)">e</text><text xml:space="preserve" font-family="BankGothic-Medium,Bank Gothic" font-size="39.0" fill="#05510A" transform="matrix(1.00, 0.00, -0.00, -1.00, 1228.9, 770.7)">r</text><text xml:space="preserve" font-family="BankGothic-Medium,Bank Gothic" font-size="39.0" fill="#05510A" transform="matrix(1.00, 0.00, -0.00, -1.00, 1254.2, 770.7)"> </text><text xml:space="preserve" font-family="BankGothic-Medium,Bank Gothic" font-size="39.0" fill="#05510A" transform="matrix(1.00, 0.00, -0.00, -1.00, 1269.3, 770.7)">l</text><text xml:space="preserve" font-family="BankGothic-Medium,Bank Gothic" font-size="39.0" fill="#05510A" transform="matrix(1.00, 0.00, -0.00, -1.00, 1290.9, 770.7)">a</text><text xml:space="preserve" font-family="BankGothic-Medium,Bank Gothic" font-size="39.0" fill="#05510A" transform="matrix(1.00, 0.00, -0.00, -1.00, 1316.1, 770.7)">n</text><text xml:space="preserve" font-family="BankGothic-Medium,Bank Gothic" font-size="39.0" fill="#05510A" transform="matrix(1.00, 0.00, -0.00, -1.00, 1343.8, 770.7)">g</text><text xml:space="preserve" font-family="BankGothic-Medium,Bank Gothic" font-size="39.0" fill="#05510A" transform="matrix(1.00, 0.00, -0.00, -1.00, 1370.8, 770.7)">u</text><text xml:space="preserve" font-family="BankGothic-Medium,Bank Gothic" font-size="39.0" fill="#05510A" transform="matrix(1.00, 0.00, -0.00, -1.00, 1397.7, 770.7)">a</text><text xml:space="preserve" font-family="BankGothic-Medium,Bank Gothic" font-size="39.0" fill="#05510A" transform="matrix(1.00, 0.00, -0.00, -1.00, 1422.9, 770.7)">g</text><text xml:space="preserve" font-family="BankGothic-Medium,Bank Gothic" font-size="39.0" fill="#05510A" transform="matrix(1.00, 0.00, -0.00, -1.00, 1449.9, 770.7)">e</text><text xml:space="preserve" font-family="BankGothic-Medium,Bank Gothic" font-size="39.0" fill="#05510A" transform="matrix(1.00, 0.00, -0.00, -1.00, 1473.6, 770.7)">s</text><text xml:space="preserve" font-family="BankGothic-Medium,Bank Gothic" font-size="39.0" fill="#05510A" transform="matrix(1.00, 0.00, -0.00, -1.00, 1499.4, 770.7)">)</text></g></svg>